<svg xmlns="http://www.w3.org/2000/svg" preserveAspectRatio="xMidYMid" width="32" height="32" viewBox="0 0 32 32"><defs><style>.cls-1{fill:#fff;fill-rule:evenodd}</style></defs><path d="M21.909 32a10.097 10.097 0 0 1-9.399-6.347 9.847 9.847 0 0 1-.692-3.64 9.822 9.822 0 0 1 .312-2.477 9.934 9.934 0 0 1 1.455-3.169 10.098 10.098 0 0 1 8.136-4.338c.06-.004.124-.004.188-.004.107 0 .211.004.315.007 5.429.166 9.779 4.571 9.776 9.981C32 27.528 27.482 32 21.909 32zm3.658-8.817a2.852 2.852 0 0 0-.645-.984 3.504 3.504 0 0 0-1.072-.698c-.41-.18-.88-.273-1.333-.363-.45-.09-.907-.183-1.31-.356a2.008 2.008 0 0 1-.766-.545c-.235-.282-.353-.638-.353-1.057a1.597 1.597 0 0 1 .42-1.104c.185-.203.427-.359.702-.465a2.15 2.15 0 0 1 .302-.09c.158-.033.323-.053.491-.053.554 0 1.055.203 1.374.555.141.156.255.359.339.605.101.299.41.485.729.439l.353-.053a.659.659 0 0 0 .53-.871 2.98 2.98 0 0 0-.927-1.324c-.403-.329-.937-.561-1.538-.678v-.548a.665.665 0 0 0-.649-.659h-.383a.667.667 0 0 0-.668.659v.538c-.286.053-.558.13-.806.233-.319.13-.602.299-.837.502a3.035 3.035 0 0 0-.809 1.09 3.107 3.107 0 0 0-.185.589 3.841 3.841 0 0 0-.067.542c0 .063-.004.126-.004.193 0 .558.125 1.064.367 1.502.245.443.598.795 1.051 1.044.44.243.88.403 1.337.532.275.077.554.14.847.207.628.139 1.323.352 1.73.844.221.269.332.635.332 1.084 0 .532-.161.984-.48 1.343a2.017 2.017 0 0 1-1.216.638 2.342 2.342 0 0 1-.343.027c-.675 0-1.307-.289-1.69-.775-.171-.216-.309-.522-.409-.917a.664.664 0 0 0-.545-.489.597.597 0 0 0-.215 0l-.359.063a.67.67 0 0 0-.467.326.635.635 0 0 0-.071.459c.094.432.249.818.464 1.15.322.499.709.868 1.152 1.094.376.189.796.329 1.233.412v.416c0 .365.299.661.669.661h.362c.37 0 .669-.296.669-.661v-.399c.793-.14 1.485-.489 1.992-1.018.618-.645.93-1.456.927-2.417 0-.435-.077-.847-.225-1.223zM10.608 12.451c-5.405 0-9.866-1.187-10.524-2.72A.997.997 0 0 1 0 9.339V4.947c.081.063.165.126.255.19.625.435 1.488.814 2.567 1.13 2.092.615 4.857.954 7.786.954 2.93 0 5.694-.339 7.787-.954 1.078-.319 1.942-.698 2.566-1.13.091-.06.175-.123.256-.19V9.339c0 .133-.031.263-.084.392-.659 1.533-5.12 2.72-10.525 2.72zm0-6.227C4.75 6.224 0 4.831 0 3.112c0-.17.047-.336.138-.499.094-.173.235-.339.42-.499C1.972.884 5.939 0 10.608 0c4.67 0 8.633.884 10.051 2.114.185.16.326.326.42.499.091.163.138.329.138.499 0 1.719-4.75 3.112-10.609 3.112zm-7.786 6.27c2.092.615 4.857.954 7.786.954 1.714 0 3.373-.116 4.871-.335-.49.345-.954.734-1.387 1.163a10.858 10.858 0 0 0-1.653 2.091c-.272.442-.51.905-.715 1.387-.185.425-.34.864-.464 1.306-.215.004-.433.007-.652.007-5.381 0-9.825-1.174-10.514-2.7A1.013 1.013 0 0 1 0 15.955v-4.781c.081.063.165.127.255.19.625.435 1.488.814 2.567 1.13zm0 6.619c2.092.616 4.857.955 7.786.955.141 0 .283-.004.42-.004-.117.639-.174 1.29-.174 1.952 0 1.267.215 2.503.641 3.68-.292.007-.588.01-.887.01C4.75 25.706 0 24.313 0 22.594v-4.8c.081.063.165.126.255.189.625.436 1.488.815 2.567 1.13z" class="cls-1"/></svg>