<svg xmlns="http://www.w3.org/2000/svg" preserveAspectRatio="xMidYMid" width="23.5" height="31.688" viewBox="0 0 23.5 31.688"><defs><style>.cls-1{fill:#fff;fill-rule:evenodd}</style></defs><path d="M11.935 31.654a.447.447 0 0 1-.185.037.448.448 0 0 1-.188-.037C11.093 31.447.009 26.517.009 20.064V4.3c0-.252.204-.461.462-.461C9.704 3.839 11.305.317 11.317.28a.474.474 0 0 1 .436-.283c.19.004.358.119.426.291.014.033 1.582 3.551 10.85 3.551.255 0 .46.209.462.461v15.764c0 6.453-11.082 11.383-11.556 11.59zm9.005-12.507V6.808a.362.362 0 0 0-.361-.363c-7.254 0-8.482-2.752-8.494-2.777a.36.36 0 0 0-.332-.229h-.006a.366.366 0 0 0-.334.223c-.012.027-1.265 2.783-8.494 2.783a.363.363 0 0 0-.362.363v12.339c0 5.049 8.681 8.912 9.045 9.072a.333.333 0 0 0 .147.031.32.32 0 0 0 .144-.031c.37-.16 9.048-4.023 9.048-9.072h-.001zm-9.657 3.077a.246.246 0 0 1-.178.152c-.016.004-.035.004-.048.004a.224.224 0 0 1-.173-.074l-6.121-6.223c-.049-.051 1.796-1.689 1.885-1.625l3.361 2.633c1.309-1.539 4.533-5.002 9.005-7.744.063-.038.727.974.728.975a.245.245 0 0 1-.06.275c-4.157 3.827-7.414 9.106-8.399 11.627z" class="cls-1"/></svg>