<svg xmlns="http://www.w3.org/2000/svg" preserveAspectRatio="xMidYMid" width="27" height="32" viewBox="0 0 27 32"><defs><style>.cls-1{fill:#fff;fill-rule:evenodd}</style></defs><path d="M27 18.839C27 26.054 20.901 32 13.5 32S0 26.121 0 18.839c0-6.213 4.523-11.49 10.553-12.827V4.61H8.429V0H18.64v4.61h-2.125v1.402c.96.201 1.851.535 2.741.936l2.742-3.407 4.728 3.54-2.741 3.474A12.86 12.86 0 0 1 27 18.839zM17.269 3.273V1.336H9.8v1.937H17.269zM11.855 4.61v1.202h.343c.411-.067.822-.067 1.234-.067.411 0 .822 0 1.233.067H15.076V4.61h-3.221zm4.112 2.672c-.206-.067-.48-.134-.685-.134-.206 0-.412-.067-.617-.067-.274-.067-.617-.067-.891-.067h-.48c-.274 0-.616.067-.89.067-.206 0-.412.067-.617.067-.206.067-.48.067-.686.134-5.55 1.135-9.73 5.879-9.73 11.624 0 6.48 5.413 11.825 12.129 11.825 6.716 0 12.129-5.345 12.198-11.825 0-5.745-4.18-10.488-9.731-11.624zm8.84.067l-2.604-1.938-1.713 2.205c.479.267.959.534 1.37.868.412.334.823.668 1.234 1.069l1.713-2.204zM13.5 28.392c-5.345 0-9.731-4.275-9.731-9.486S8.155 9.42 13.5 9.42s9.731 4.208 9.731 9.486c0 5.211-4.386 9.486-9.731 9.486zm0-17.703c-4.591 0-8.36 3.674-8.36 8.15 0 4.476 3.769 8.15 8.36 8.15 4.591 0 8.36-3.674 8.36-8.15 0-4.476-3.769-8.15-8.36-8.15zm-.685 2.071h1.37v6.146h-1.37V12.76z" class="cls-1"/></svg>